{"glyphs":{":":{"x_min":0,"x_max":240,"ha":240,"o":"m 90 290 l 90 353 l 150 353 l 150 290 z m 90 0 l 90 63 l 150 63 l 150 0 z"},"$":{"x_min":0,"x_max":500,"ha":500,"o":"m 263 11 l 263 -40 l 228 -40 l 228 8 l 217 8 q 175 8 140 15 q 106 22 91 31 l 91 72 q 143 43 220 43 l 228 43 l 228 230 q 184 239 156 250 q 128 261 111 283 q 94 305 94 343 q 94 397 130 429 q 167 460 228 466 l 228 517 l 263 517 l 263 468 q 330 468 381 442 l 381 404 q 328 432 263 433 l 263 261 q 339 245 369 216 q 399 187 399 139 q 399 84 364 52 q 329 20 263 11 z m 228 268 l 228 431 q 133 421 133 343 q 133 318 143 304 q 153 290 173 283 q 192 275 228 268 z m 361 137 q 361 170 340 191 q 318 211 263 222 l 263 46 q 311 53 336 76 q 361 100 361 137 z"},"?":{"x_min":0,"x_max":405,"ha":405,"o":"m 117 210 q 117 255 138 293 q 158 332 215 379 q 248 405 266 423 q 285 440 297 464 q 309 488 309 519 q 309 569 271 598 q 232 628 167 628 q 133 628 96 620 q 59 611 30 598 l 30 637 q 88 666 165 666 q 250 666 301 625 q 352 585 352 517 q 352 490 343 467 q 333 444 315 422 q 296 400 236 352 q 188 312 171 277 q 155 242 155 196 l 155 188 l 118 188 z m 104 0 l 104 63 l 162 63 l 162 0 z"},"<":{"x_min":0,"x_max":500,"ha":500,"o":"m 444 29 l 56 241 l 56 272 l 444 485 l 444 445 l 99 258 l 99 256 l 444 69 z"},"'":{"x_min":0,"x_max":183,"ha":183,"o":"m 72 437 l 72 653 l 111 653 l 111 437 z"},"=":{"x_min":0,"x_max":500,"ha":500,"o":"m 56 339 l 56 377 l 444 377 l 444 339 z m 56 150 l 56 188 l 444 188 l 444 150 z"},"a":{"x_min":0,"x_max":475,"ha":475,"o":"m 51 131 q 51 193 95 231 q 139 269 209 269 q 275 269 349 242 l 349 301 q 349 366 315 399 q 282 432 208 432 q 160 432 91 409 l 91 446 q 105 455 140 461 q 174 468 208 468 q 299 468 344 426 q 388 385 388 301 l 388 146 q 388 98 392 0 l 357 0 l 350 53 l 348 53 q 325 27 283 7 q 240 -12 199 -12 q 132 -12 92 23 q 51 59 51 131 z m 349 94 l 349 208 q 312 222 283 227 q 254 233 204 233 q 151 233 121 206 q 91 180 91 131 q 91 76 121 50 q 150 23 199 23 q 252 23 288 44 q 323 65 349 94 z"},"L":{"x_min":0,"x_max":505,"ha":505,"o":"m 87 653 l 130 653 l 130 39 l 461 39 l 461 0 l 87 0 z"},"3":{"x_min":0,"x_max":422,"ha":422,"o":"m 29 -176 l 29 -139 q 64 -154 95 -160 q 127 -166 174 -166 q 228 -166 264 -145 q 301 -123 318 -89 q 335 -55 335 -16 q 335 54 285 89 q 235 125 143 125 l 106 125 l 106 161 l 124 161 q 191 161 233 182 q 274 204 292 237 q 310 270 310 308 q 310 365 272 399 q 235 432 168 432 q 110 432 39 403 l 39 439 q 66 452 104 460 q 141 468 173 468 q 254 468 303 425 q 352 382 352 309 q 352 251 319 208 q 285 164 220 147 l 220 145 q 292 142 335 98 q 377 55 377 -15 q 377 -102 320 -152 q 262 -202 165 -202 q 85 -202 29 -176 z"},";":{"x_min":0,"x_max":222,"ha":222,"o":"m 77 290 l 77 353 l 137 353 l 137 290 z m 13 -180 l 82 84 l 126 84 l 45 -180 z"},"J":{"x_min":0,"x_max":349,"ha":349,"o":"m 34 2 l 34 44 q 71 29 110 29 q 160 29 191 53 q 221 78 221 144 l 221 653 l 264 653 l 264 131 q 264 93 247 59 q 230 25 197 6 q 164 -12 113 -12 q 57 -11 34 2 z"},"V":{"x_min":0,"x_max":579,"ha":579,"o":"m 72 653 l 198 304 q 265 121 289 44 l 291 44 q 315 123 364 257 l 506 653 l 550 653 l 313 0 l 265 0 l 28 653 z"},"\"":{"x_min":0,"x_max":332,"ha":332,"o":"m 66 437 l 66 653 l 105 653 l 105 437 z m 227 437 l 227 653 l 266 653 l 266 437 z"},"7":{"x_min":0,"x_max":374,"ha":374,"o":"m 52 -189 l 309 418 l 10 418 l 10 456 l 358 456 l 358 430 l 95 -189 z"},"S":{"x_min":0,"x_max":528,"ha":528,"o":"m 67 23 l 67 70 q 91 55 145 42 q 199 28 235 28 q 323 28 371 61 q 420 93 420 172 q 420 211 404 237 q 387 263 359 279 q 331 294 257 314 q 194 331 155 346 q 117 362 90 396 q 64 429 64 486 q 64 567 123 617 q 182 666 277 666 q 339 666 399 648 q 423 639 442 630 l 442 583 q 412 597 391 605 q 370 614 340 620 q 310 626 274 627 q 189 627 149 588 q 108 549 108 484 q 108 443 126 419 q 144 396 174 383 q 204 371 264 354 q 332 335 370 320 q 408 304 436 269 q 464 234 464 174 q 464 86 404 37 q 343 -12 232 -12 q 186 -12 136 0 q 86 12 67 23 z"},"}":{"x_min":0,"x_max":315,"ha":315,"o":"m 173 256 q 150 262 129 285 q 107 309 107 364 q 107 385 114 404 q 121 423 134 451 q 147 478 154 497 q 160 516 160 536 q 160 574 134 596 q 107 618 55 618 l 30 618 l 30 653 l 45 653 q 119 653 160 624 q 201 595 201 541 q 201 510 193 487 q 185 463 170 436 q 158 411 152 396 q 146 380 146 362 q 146 324 159 305 q 172 287 191 281 q 210 276 235 276 l 235 234 q 186 234 166 215 q 146 196 146 158 q 146 140 152 123 q 158 107 170 81 q 185 50 193 25 q 201 0 201 -31 q 201 -84 160 -114 q 118 -143 45 -143 l 30 -143 l 30 -108 l 55 -108 q 107 -108 134 -86 q 160 -63 160 -26 q 160 -5 154 15 q 147 35 134 64 q 121 93 114 114 q 107 134 107 156 q 107 205 129 227 q 150 249 173 254 z"},"Z":{"x_min":0,"x_max":571,"ha":571,"o":"m 53 37 l 465 614 l 62 614 l 62 653 l 514 653 l 514 617 l 101 39 l 518 39 l 518 0 l 53 0 z"},"x":{"x_min":0,"x_max":395,"ha":395,"o":"m 174 231 l 10 456 l 54 456 l 196 259 l 337 456 l 379 456 l 220 232 l 386 0 l 342 0 l 196 203 l 51 0 l 8 0 z"},")":{"x_min":0,"x_max":295,"ha":295,"o":"m 48 -133 q 109 -66 149 34 q 189 134 189 255 q 189 378 150 474 q 110 570 48 639 l 72 662 q 104 631 142 576 q 179 521 207 438 q 235 354 235 253 q 235 153 207 70 q 179 -14 142 -70 q 104 -125 72 -155 z"},"&":{"x_min":0,"x_max":648,"ha":648,"o":"m 533 0 l 465 66 q 374 -12 261 -12 q 188 -12 142 14 q 95 41 75 80 q 54 119 54 160 q 54 220 83 263 q 112 307 187 346 q 133 400 114 439 q 94 477 94 519 q 94 584 140 625 q 187 666 259 666 q 333 666 376 629 q 419 591 419 527 q 419 481 396 447 q 373 413 339 390 q 305 367 249 338 l 464 117 q 538 198 538 332 l 578 332 q 578 261 554 199 q 531 137 488 90 l 581 0 z m 134 521 q 134 479 155 444 q 176 408 223 362 q 314 407 347 442 q 379 477 379 528 q 379 580 345 605 q 311 630 259 630 q 203 630 168 600 q 134 570 134 521 z m 439 90 l 213 321 q 145 285 121 249 q 96 212 96 159 q 96 99 142 61 q 188 22 261 22 q 314 22 357 39 q 400 56 439 90 z"},"_":{"x_min":0,"x_max":488,"ha":488,"o":"m 0 -107 l 0 -69 l 488 -69 l 488 -107 z"},"v":{"x_min":0,"x_max":435,"ha":435,"o":"m 65 456 l 184 130 q 203 80 216 38 l 218 38 l 370 456 l 412 456 l 239 0 l 196 0 l 23 456 z"},"O":{"x_min":0,"x_max":726,"ha":726,"o":"m 67 326 q 67 423 105 501 q 143 579 210 622 q 277 666 363 666 q 452 666 519 622 q 586 579 623 501 q 659 424 659 326 q 659 229 622 152 q 584 75 517 31 q 450 -12 365 -12 q 275 -12 207 31 q 140 75 103 152 q 67 229 67 326 z m 613 326 q 613 420 580 488 q 546 556 490 592 q 433 627 363 627 q 294 627 237 592 q 180 556 146 488 q 113 420 113 326 q 113 231 146 164 q 180 96 238 62 q 295 27 365 27 q 434 27 490 62 q 546 96 580 164 q 613 231 613 326 z"},"(":{"x_min":0,"x_max":295,"ha":295,"o":"m 60 253 q 60 354 88 438 q 116 521 153 576 q 190 631 223 662 l 247 639 q 185 570 145 474 q 106 378 106 255 q 106 134 146 34 q 186 -66 247 -133 l 223 -155 q 190 -125 153 -70 q 116 -14 88 70 q 60 153 60 253 z"},"C":{"x_min":0,"x_max":594,"ha":594,"o":"m 67 321 q 67 423 108 502 q 150 580 225 623 q 300 666 397 666 q 437 666 477 658 q 517 650 534 640 l 534 599 q 459 626 401 626 q 321 626 255 591 q 190 557 151 488 q 113 419 113 320 q 113 179 190 104 q 267 28 411 28 q 479 28 541 54 l 541 14 q 517 1 480 -5 q 444 -12 405 -12 q 242 -12 154 74 q 67 161 67 321 z"},"W":{"x_min":0,"x_max":856,"ha":856,"o":"m 74 653 l 211 158 q 229 92 245 42 l 246 42 q 254 81 272 137 l 279 159 l 404 653 l 451 653 l 577 159 q 603 56 608 41 l 609 41 q 633 114 645 158 l 782 653 l 828 653 l 633 0 l 583 0 l 457 475 q 432 569 428 604 l 426 604 q 420 567 396 475 l 270 0 l 221 0 l 28 653 z"},"A":{"x_min":0,"x_max":615,"ha":615,"o":"m 19 0 l 286 653 l 328 653 l 596 0 l 549 0 l 455 232 l 159 232 l 66 0 z m 439 271 l 414 334 q 333 537 309 602 l 307 602 q 287 546 241 437 q 227 403 174 271 z"},"f":{"x_min":0,"x_max":309,"ha":309,"o":"m 23 419 l 23 456 l 106 456 l 106 540 q 106 632 152 676 q 197 719 271 719 q 301 719 326 715 l 326 678 q 297 683 274 683 q 210 683 177 648 q 145 613 145 535 l 145 456 l 290 456 l 290 419 l 145 419 l 145 0 l 106 0 l 106 419 z"},"Q":{"x_min":0,"x_max":726,"ha":726,"o":"m 67 326 q 67 424 105 501 q 143 579 210 622 q 277 666 363 666 q 452 666 519 623 q 586 579 623 503 q 659 428 659 334 q 659 227 618 148 q 578 69 509 31 l 509 28 q 607 36 662 36 l 662 -4 l 599 -2 l 545 0 l 485 -3 q 410 -10 364 -10 q 229 -10 148 82 q 67 173 67 326 z m 612 326 q 612 422 579 490 q 546 557 489 592 q 433 626 363 626 q 293 626 237 592 q 180 557 146 490 q 113 422 113 326 q 113 232 146 165 q 179 97 237 62 q 294 27 365 27 q 436 27 491 62 q 547 97 580 165 q 612 232 612 326 z"},"w":{"x_min":0,"x_max":678,"ha":678,"o":"m 645 456 l 509 0 l 466 0 l 339 423 l 336 423 l 215 0 l 172 0 l 33 456 l 75 456 l 166 130 l 192 40 l 194 40 l 313 456 l 365 456 l 460 132 l 486 40 l 488 40 l 504 94 l 604 456 z"},"-":{"x_min":0,"x_max":333,"ha":333,"o":"m 59 222 l 59 263 l 274 263 l 274 222 z"},"E":{"x_min":0,"x_max":536,"ha":536,"o":"m 87 653 l 459 653 l 459 614 l 130 614 l 130 354 l 431 354 l 431 315 l 130 315 l 130 39 l 478 39 l 478 0 l 87 0 z"},"s":{"x_min":0,"x_max":386,"ha":386,"o":"m 51 11 l 51 52 q 104 23 175 23 q 233 23 267 50 q 301 77 301 126 q 301 163 278 183 q 256 203 203 216 q 155 228 124 240 q 93 253 74 277 q 54 302 54 342 q 54 406 97 437 q 140 468 207 468 q 268 468 321 442 l 321 404 q 292 418 266 426 q 239 433 204 433 q 149 433 120 410 q 92 387 92 345 q 92 316 105 300 q 119 283 142 274 q 166 266 213 254 q 279 237 309 209 q 339 181 339 129 q 339 64 295 26 q 251 -12 175 -12 q 93 -12 51 11 z"},">":{"x_min":0,"x_max":500,"ha":500,"o":"m 56 29 l 56 69 l 401 256 l 401 258 l 56 445 l 56 485 l 444 272 l 444 241 z"},"l":{"x_min":0,"x_max":213,"ha":213,"o":"m 87 707 l 126 707 l 126 0 l 87 0 z"},"8":{"x_min":0,"x_max":478,"ha":478,"o":"m 43 164 q 43 237 83 278 q 124 320 189 337 l 189 339 q 130 354 94 399 q 58 444 58 504 q 58 556 84 593 q 110 629 152 648 q 193 666 238 666 q 283 666 325 648 q 367 629 394 593 q 421 556 421 504 q 421 445 381 399 q 342 352 281 336 l 281 334 q 350 323 391 277 q 433 231 433 164 q 433 87 378 38 q 323 -12 238 -12 q 153 -12 98 38 q 43 88 43 164 z m 380 504 q 380 562 341 596 q 302 630 238 630 q 176 630 137 595 q 99 561 99 504 q 99 444 135 407 q 172 370 238 358 q 305 370 343 407 q 380 445 380 504 z m 391 166 q 391 233 348 270 q 305 307 238 316 q 169 306 127 270 q 85 233 85 166 q 85 102 127 63 q 170 24 238 24 q 308 24 349 62 q 391 101 391 166 z"},"\\":{"x_min":0,"x_max":258,"ha":258,"o":"m 202 -122 l 16 653 l 57 653 l 242 -122 z"},"e":{"x_min":0,"x_max":484,"ha":484,"o":"m 53 233 q 53 304 78 357 q 103 411 146 439 q 190 468 244 468 q 324 468 372 415 q 420 363 420 250 l 420 233 l 94 233 q 94 125 142 74 q 189 24 275 24 q 348 24 404 50 l 404 13 q 358 -12 275 -12 q 168 -12 111 52 q 53 116 53 233 z m 244 433 q 184 433 142 387 q 101 341 95 268 l 380 268 q 378 349 344 391 q 310 433 244 433 z"},"b":{"x_min":0,"x_max":518,"ha":518,"o":"m 125 53 l 124 53 l 119 0 l 84 0 q 87 72 87 143 l 87 707 l 126 707 l 126 399 l 127 399 q 152 431 189 449 q 227 468 271 468 q 364 468 415 407 q 465 347 465 229 q 465 150 438 95 q 411 41 366 14 q 321 -12 267 -12 q 218 -12 185 6 q 151 25 125 53 z m 424 229 q 424 432 272 432 q 187 432 126 357 l 126 96 q 145 69 180 47 q 216 24 265 24 q 338 24 381 79 q 424 134 424 229 z"},"%":{"x_min":0,"x_max":785,"ha":785,"o":"m 35 454 q 35 555 67 611 q 98 666 156 666 q 214 666 247 612 q 280 559 280 454 q 280 349 247 294 q 214 240 156 240 q 98 240 66 296 q 35 353 35 454 z m 165 -7 l 139 11 l 617 652 l 644 632 z m 243 454 q 243 632 156 632 q 72 632 72 454 q 72 273 156 273 q 243 273 243 454 z m 505 208 q 505 309 537 365 q 568 420 626 420 q 684 420 717 366 q 750 312 750 208 q 750 103 717 48 q 684 -6 626 -6 q 568 -6 537 50 q 505 106 505 208 z m 713 208 q 713 386 626 386 q 542 386 542 208 q 542 27 626 27 q 713 27 713 208 z"},"m":{"x_min":0,"x_max":812,"ha":812,"o":"m 118 456 l 126 392 l 127 392 q 159 430 193 449 q 227 468 275 468 q 333 468 369 441 q 405 414 418 375 l 420 375 q 453 422 490 445 q 527 468 576 468 q 651 468 691 425 q 730 381 730 303 l 730 0 l 691 0 l 691 294 q 691 432 573 432 q 526 432 492 406 q 458 381 428 333 l 428 0 l 389 0 l 389 308 q 389 366 358 399 q 327 432 270 432 q 226 432 192 411 q 159 390 126 350 l 126 0 l 87 0 l 87 456 z"},"#":{"x_min":0,"x_max":646,"ha":646,"o":"m 114 0 l 158 211 l 64 211 l 64 246 l 164 246 l 199 414 l 104 414 l 104 449 l 206 449 l 248 653 l 286 653 l 244 449 l 437 449 l 479 653 l 517 653 l 475 449 l 583 449 l 583 414 l 468 414 l 433 246 l 543 246 l 543 211 l 427 211 l 383 0 l 343 0 l 389 211 l 196 211 l 152 0 z m 202 246 l 395 246 l 430 414 l 237 414 z"},",":{"x_min":0,"x_max":222,"ha":222,"o":"m 13 -180 l 82 84 l 126 84 l 45 -180 z"},"n":{"x_min":0,"x_max":507,"ha":507,"o":"m 118 456 l 125 382 l 126 382 q 154 422 194 445 q 233 468 279 468 q 351 468 388 425 q 425 383 425 301 l 425 0 l 386 0 l 386 296 q 386 364 360 398 q 333 432 274 432 q 232 432 193 406 q 154 381 126 337 l 126 0 l 87 0 l 87 456 z"},"h":{"x_min":0,"x_max":507,"ha":507,"o":"m 126 707 l 126 434 l 124 382 l 126 382 q 188 468 279 468 q 354 468 390 424 q 425 379 425 301 l 425 0 l 386 0 l 386 304 q 386 364 360 398 q 333 432 277 432 q 189 432 126 337 l 126 0 l 87 0 l 87 707 z"},"z":{"x_min":0,"x_max":424,"ha":424,"o":"m 37 20 l 320 419 l 44 419 l 44 456 l 370 456 l 370 428 l 91 37 l 387 37 l 387 0 l 37 0 z"},"B":{"x_min":0,"x_max":566,"ha":566,"o":"m 192 653 q 274 653 319 646 q 365 639 401 616 q 438 594 455 563 q 471 532 471 488 q 471 367 348 338 l 348 336 q 419 334 459 295 q 499 255 499 184 q 499 132 470 88 q 441 44 392 22 q 344 0 237 0 l 87 0 l 87 653 z m 423 486 q 423 531 403 558 q 383 586 342 600 q 301 614 212 614 l 130 614 l 130 354 l 264 354 q 319 354 354 369 q 388 385 405 415 q 423 445 423 486 z m 451 184 q 451 235 427 268 q 403 301 344 310 q 317 314 265 314 l 130 314 l 130 39 l 243 39 q 314 39 361 53 q 408 67 429 104 q 451 140 451 184 z"},"K":{"x_min":0,"x_max":562,"ha":562,"o":"m 538 0 l 479 0 l 131 323 l 130 323 l 130 0 l 87 0 l 87 653 l 130 653 l 130 328 l 131 328 l 461 653 l 513 653 l 186 326 z"},"R":{"x_min":0,"x_max":559,"ha":559,"o":"m 230 653 q 291 653 325 648 q 484 617 484 480 q 484 400 432 348 q 379 296 294 292 l 294 290 l 522 0 l 469 0 l 241 287 l 130 287 l 130 0 l 87 0 l 87 653 z m 439 481 q 439 554 383 584 q 328 614 225 614 l 130 614 l 130 326 l 227 326 q 333 326 386 362 q 439 398 439 481 z"},"T":{"x_min":0,"x_max":542,"ha":542,"o":"m 249 613 l 24 613 l 24 653 l 518 653 l 518 613 l 292 613 l 292 0 l 249 0 z"},"P":{"x_min":0,"x_max":542,"ha":542,"o":"m 262 653 q 372 653 433 608 q 494 563 494 478 q 494 376 420 326 q 346 277 205 277 q 176 277 130 282 l 130 0 l 87 0 l 87 653 z m 449 476 q 449 549 396 582 q 343 614 246 614 l 130 614 l 130 321 q 179 316 205 316 q 334 316 392 357 q 449 398 449 476 z"},"|":{"x_min":0,"x_max":218,"ha":218,"o":"m 88 -227 l 88 707 l 130 707 l 130 -227 z"},"t":{"x_min":0,"x_max":318,"ha":318,"o":"m 100 109 l 100 419 l 10 419 l 10 456 l 100 456 l 100 578 l 139 578 l 139 456 l 279 456 l 279 419 l 139 419 l 139 120 q 139 67 160 46 q 180 24 224 24 q 263 24 286 32 l 286 -2 q 256 -12 217 -12 q 162 -12 131 18 q 100 48 100 109 z"},"M":{"x_min":0,"x_max":818,"ha":818,"o":"m 154 653 l 350 197 l 409 51 l 411 51 l 663 653 l 730 653 l 730 0 l 688 0 l 688 302 q 688 448 695 613 l 691 613 q 618 450 601 409 l 432 0 l 390 0 l 217 409 q 204 439 126 613 l 123 613 q 130 405 130 302 l 130 0 l 87 0 l 87 653 z"},"g":{"x_min":0,"x_max":518,"ha":518,"o":"m 86 -214 l 86 -171 q 122 -188 150 -196 q 179 -203 220 -203 q 392 -203 392 -20 l 392 49 l 390 49 q 367 22 330 5 q 293 -12 250 -12 q 158 -12 106 51 q 53 114 53 225 q 53 338 108 403 q 162 468 260 468 q 307 468 340 448 q 372 428 392 406 l 394 406 l 400 456 l 431 456 l 431 -21 q 431 -99 407 -145 q 383 -192 336 -215 q 289 -239 218 -239 q 176 -239 141 -232 q 105 -225 86 -214 z m 392 90 l 392 362 q 374 390 335 411 q 297 432 259 432 q 181 432 138 377 q 94 322 94 226 q 94 129 135 76 q 177 24 255 24 q 291 24 327 42 q 364 59 392 90 z"},"j":{"x_min":0,"x_max":213,"ha":213,"o":"m 84 610 l 129 610 l 129 563 l 84 563 z m -50 -231 l -50 -194 q -20 -203 10 -203 q 46 -203 67 -183 q 87 -163 87 -128 l 87 456 l 126 456 l 126 -137 q 126 -185 94 -212 q 61 -239 9 -239 q -22 -239 -50 -231 z"},"i":{"x_min":0,"x_max":213,"ha":213,"o":"m 84 610 l 129 610 l 129 563 l 84 563 z m 87 456 l 126 456 l 126 0 l 87 0 z"},"y":{"x_min":0,"x_max":448,"ha":448,"o":"m 23 456 l 65 456 q 203 83 219 42 l 223 42 l 383 456 l 425 456 l 149 -227 l 107 -227 l 198 -4 z"},"@":{"x_min":0,"x_max":999,"ha":999,"o":"m 639 61 l 637 61 q 614 33 573 14 q 533 -4 485 -4 q 417 -4 377 31 q 338 67 338 130 q 338 195 382 233 q 427 272 504 272 q 572 272 634 243 l 636 243 l 636 280 q 636 362 604 396 q 572 431 501 431 q 470 431 437 425 q 404 419 381 409 l 381 446 q 437 469 503 469 q 675 469 675 290 l 675 83 q 675 58 688 46 q 700 34 727 34 q 788 34 827 106 q 866 177 866 289 q 866 390 819 467 q 771 543 689 585 q 608 626 509 626 q 389 626 304 571 q 219 515 175 423 q 132 332 132 223 q 132 108 179 21 q 226 -65 314 -113 q 403 -160 524 -160 q 591 -160 659 -146 q 727 -132 778 -111 l 778 -153 q 731 -171 659 -185 q 587 -198 518 -198 q 396 -198 300 -151 q 203 -104 147 -9 q 92 86 92 223 q 92 354 145 454 q 197 553 292 608 q 386 662 509 662 q 626 662 716 615 q 806 567 856 481 q 906 396 906 284 q 906 162 855 81 q 804 0 727 0 q 687 0 665 17 q 644 34 639 61 z m 636 96 l 636 213 q 566 236 509 236 q 447 236 412 208 q 378 181 378 130 q 378 84 407 57 q 436 30 485 30 q 526 30 566 48 q 605 65 636 96 z"},".":{"x_min":0,"x_max":240,"ha":240,"o":"m 90 0 l 90 63 l 150 63 l 150 0 z"},"p":{"x_min":0,"x_max":518,"ha":518,"o":"m 114 456 l 126 403 l 127 403 q 150 431 190 449 q 230 468 268 468 q 364 468 414 406 q 465 344 465 232 q 465 135 432 81 q 398 26 354 7 q 310 -12 268 -12 q 178 -12 126 44 l 125 44 l 126 -45 l 126 -227 l 87 -227 l 87 456 z m 424 231 q 424 327 383 379 q 342 432 268 432 q 225 432 186 411 q 147 389 126 356 l 126 84 q 159 52 192 38 q 225 24 267 24 q 324 24 374 65 q 424 105 424 231 z"},"X":{"x_min":0,"x_max":537,"ha":537,"o":"m 28 653 l 77 653 l 233 414 l 270 361 l 271 361 l 309 413 l 468 653 l 516 653 l 302 331 l 527 0 l 478 0 l 309 249 l 270 304 l 268 304 l 228 247 l 58 0 l 10 0 l 239 335 z"},"*":{"x_min":0,"x_max":547,"ha":547,"o":"m 272 427 l 216 334 l 155 261 l 117 293 l 179 367 l 259 439 l 153 459 l 64 491 l 81 538 l 171 505 l 266 454 l 248 561 l 248 656 l 298 656 l 298 560 l 282 454 l 376 506 l 465 538 l 482 491 l 392 458 l 287 437 l 368 366 l 429 294 l 390 262 l 329 335 z"},"Y":{"x_min":0,"x_max":557,"ha":557,"o":"m 257 262 l 28 653 l 75 653 l 277 300 l 280 300 l 482 653 l 529 653 l 300 262 l 300 0 l 257 0 z"},"c":{"x_min":0,"x_max":436,"ha":436,"o":"m 53 224 q 53 311 85 365 q 116 420 164 444 q 212 468 263 468 q 298 468 330 461 q 362 454 383 442 l 383 402 q 357 416 324 424 q 292 432 262 432 q 220 432 181 411 q 143 391 119 344 q 94 297 94 223 q 94 132 142 78 q 190 24 271 24 q 324 24 390 52 l 390 15 q 335 -12 268 -12 q 208 -12 159 14 q 111 40 82 93 q 53 146 53 224 z"},"!":{"x_min":0,"x_max":240,"ha":240,"o":"m 96 653 l 144 653 l 134 187 l 107 188 z m 90 0 l 90 63 l 150 63 l 150 0 z"},"/":{"x_min":0,"x_max":258,"ha":258,"o":"m 16 -122 l 201 653 l 242 653 l 56 -122 z"},"[":{"x_min":0,"x_max":315,"ha":315,"o":"m 87 -146 l 87 653 l 286 653 l 286 618 l 128 618 l 128 -111 l 286 -111 l 286 -146 z"},"6":{"x_min":0,"x_max":501,"ha":501,"o":"m 61 280 q 61 384 92 472 q 123 561 182 613 q 241 666 323 666 q 373 666 413 647 l 413 609 q 399 616 372 622 q 346 629 317 629 q 265 629 219 596 q 173 562 143 495 q 112 428 104 331 l 106 331 q 182 384 266 384 q 350 384 401 332 q 451 281 451 194 q 451 103 399 45 q 347 -12 263 -12 q 167 -12 114 65 q 61 143 61 280 z m 409 190 q 409 263 370 304 q 331 346 262 346 q 222 346 180 330 q 139 314 103 290 q 103 164 145 94 q 187 24 264 24 q 328 24 368 70 q 409 117 409 190 z"},"r":{"x_min":0,"x_max":327,"ha":327,"o":"m 118 456 l 125 375 l 126 375 q 153 415 202 441 q 252 468 304 468 l 317 468 l 317 429 l 304 429 q 250 429 201 400 q 151 371 126 323 l 126 0 l 87 0 l 87 456 z"},"2":{"x_min":0,"x_max":522,"ha":522,"o":"m 105 31 q 261 147 297 183 q 333 219 350 252 q 367 286 367 325 q 367 376 336 404 q 305 432 243 432 q 206 432 176 423 q 146 415 110 397 l 110 433 q 163 468 247 468 q 322 468 365 430 q 409 392 409 327 q 409 273 380 227 q 351 181 307 143 q 263 105 186 50 l 168 37 l 168 35 l 260 37 l 449 37 l 449 0 l 105 0 z"},"{":{"x_min":0,"x_max":315,"ha":315,"o":"m 208 156 q 208 134 201 114 q 194 93 181 64 q 168 35 161 15 q 155 -5 155 -26 q 155 -63 181 -86 q 208 -108 260 -108 l 285 -108 l 285 -143 l 270 -143 q 197 -143 155 -113 q 114 -83 114 -31 q 114 0 122 25 q 130 50 145 81 q 157 107 163 123 q 169 140 169 158 q 169 191 156 208 q 143 224 124 229 q 105 234 80 234 l 80 276 q 105 276 124 281 q 143 287 156 305 q 169 324 169 362 q 169 380 163 396 q 157 411 145 436 q 130 463 122 487 q 114 510 114 541 q 114 594 155 623 q 197 653 270 653 l 285 653 l 285 618 l 260 618 q 208 618 181 596 q 155 574 155 536 q 155 516 161 497 q 168 478 181 451 q 194 423 201 404 q 208 385 208 364 q 208 309 187 285 q 165 261 142 256 l 142 254 q 165 249 186 227 q 208 205 208 156 z"},"9":{"x_min":0,"x_max":500,"ha":500,"o":"m 64 -179 l 64 -141 q 108 -165 168 -165 q 387 -165 398 123 l 396 123 q 365 103 318 88 q 271 73 230 73 q 145 73 98 125 q 52 176 52 268 q 52 323 74 368 q 97 414 139 441 q 182 468 237 468 q 336 468 388 389 q 440 310 440 161 q 440 -16 370 -109 q 300 -202 172 -202 q 106 -202 64 -179 z m 399 163 q 397 297 355 365 q 312 432 237 432 q 173 432 133 387 q 93 342 93 268 q 93 187 128 148 q 164 110 238 110 q 279 110 321 125 q 364 140 399 163 z"}," ":{"x_min":0,"x_max":195,"ha":195,"o":""},"I":{"x_min":0,"x_max":217,"ha":217,"o":"m 87 653 l 130 653 l 130 0 l 87 0 z"},"H":{"x_min":0,"x_max":639,"ha":639,"o":"m 87 653 l 130 653 l 130 356 l 509 356 l 509 653 l 552 653 l 552 0 l 509 0 l 509 317 l 130 317 l 130 0 l 87 0 z"},"4":{"x_min":0,"x_max":507,"ha":507,"o":"m 319 -189 l 319 0 l 57 0 l 57 32 l 261 456 l 304 456 l 102 39 l 102 37 l 319 37 l 319 208 l 359 208 l 359 37 l 465 37 l 465 0 l 359 0 l 359 -189 z"},"~":{"x_min":0,"x_max":500,"ha":500,"o":"m 156 218 q 113 218 85 172 l 53 194 q 65 219 93 238 q 121 257 155 257 q 191 257 254 231 q 282 220 299 214 q 316 209 331 209 q 354 209 373 222 q 393 234 404 255 l 434 235 q 421 209 394 190 q 367 171 330 171 q 311 171 291 176 q 272 181 244 192 q 212 205 193 211 q 173 218 156 218 z"},"D":{"x_min":0,"x_max":654,"ha":654,"o":"m 215 653 q 301 653 349 643 q 470 612 528 531 q 587 450 587 330 q 587 205 523 119 q 459 33 349 10 q 300 0 229 0 l 87 0 l 87 653 z m 541 329 q 541 437 492 507 q 444 577 352 602 q 324 609 289 612 q 253 614 197 614 l 130 614 l 130 39 l 200 39 q 253 39 284 41 q 315 42 343 49 q 436 69 488 144 q 541 219 541 329 z"},"^":{"x_min":0,"x_max":500,"ha":500,"o":"m 22 279 l 231 666 l 269 666 l 478 279 l 435 279 l 250 617 l 248 617 l 65 279 z"},"0":{"x_min":0,"x_max":513,"ha":513,"o":"m 55 227 q 55 334 110 401 q 166 468 256 468 q 347 468 403 402 q 458 336 458 227 q 458 122 401 55 q 345 -12 256 -12 q 164 -12 110 52 q 55 117 55 227 z m 416 227 q 416 320 372 376 q 328 433 256 433 q 184 433 140 377 q 97 321 97 227 q 97 133 140 78 q 184 23 256 23 q 330 23 373 78 q 416 133 416 227 z"},"F":{"x_min":0,"x_max":489,"ha":489,"o":"m 87 653 l 453 653 l 453 614 l 130 614 l 130 356 l 425 356 l 425 317 l 130 317 l 130 0 l 87 0 z"},"`":{"x_min":0,"x_max":298,"ha":298,"o":"m 175 549 l 97 719 l 148 719 l 210 549 z"},"k":{"x_min":0,"x_max":442,"ha":442,"o":"m 420 456 l 175 250 l 419 0 l 367 0 l 127 248 l 126 248 l 126 0 l 87 0 l 87 707 l 126 707 l 126 257 l 127 257 l 366 456 z"},"u":{"x_min":0,"x_max":492,"ha":492,"o":"m 77 175 l 77 456 l 116 456 l 116 165 q 116 90 151 57 q 186 24 246 24 q 289 24 318 40 q 347 56 362 84 q 376 113 376 167 l 376 456 l 415 456 l 415 174 q 415 119 405 88 q 396 57 372 33 q 349 9 318 -1 q 287 -12 248 -12 q 206 -12 173 0 q 141 13 119 35 q 97 57 87 87 q 77 117 77 175 z"},"]":{"x_min":0,"x_max":315,"ha":315,"o":"m 228 -146 l 29 -146 l 29 -111 l 187 -111 l 187 618 l 29 618 l 29 653 l 228 653 z"},"U":{"x_min":0,"x_max":644,"ha":644,"o":"m 85 233 l 85 653 l 128 653 l 128 215 q 128 126 179 77 q 230 27 322 27 q 415 27 465 75 q 516 123 516 215 l 516 653 l 559 653 l 559 233 q 559 -12 321 -12 q 203 -12 144 51 q 85 114 85 233 z"},"o":{"x_min":0,"x_max":514,"ha":514,"o":"m 53 227 q 53 336 109 402 q 165 468 258 468 q 351 468 406 402 q 461 337 461 227 q 461 120 405 54 q 349 -12 258 -12 q 165 -12 109 53 q 53 118 53 227 z m 420 227 q 420 321 376 377 q 332 432 258 432 q 183 432 138 377 q 94 322 94 227 q 94 133 138 79 q 182 24 258 24 q 333 24 376 78 q 420 133 420 227 z"},"N":{"x_min":0,"x_max":667,"ha":667,"o":"m 124 653 l 418 242 l 541 66 l 544 66 q 537 127 537 268 l 537 653 l 580 653 l 580 0 l 543 0 l 248 415 l 126 588 l 124 588 q 130 526 130 359 l 130 0 l 87 0 l 87 653 z"},"+":{"x_min":0,"x_max":500,"ha":500,"o":"m 230 45 l 230 232 l 56 232 l 56 270 l 230 270 l 230 455 l 270 455 l 270 270 l 444 270 l 444 232 l 270 232 l 270 45 z"},"G":{"x_min":0,"x_max":664,"ha":664,"o":"m 67 312 q 67 421 113 501 q 158 581 239 624 q 319 666 421 666 q 464 666 501 659 q 538 651 553 643 l 553 601 q 528 610 489 618 q 449 625 415 625 q 335 625 266 591 q 197 558 155 489 q 113 420 113 320 q 113 180 191 102 q 270 25 414 25 q 468 25 534 45 l 534 282 l 383 282 l 383 323 l 577 323 l 577 20 q 562 8 510 -2 q 458 -12 406 -12 q 247 -12 157 74 q 67 160 67 312 z"},"q":{"x_min":0,"x_max":514,"ha":514,"o":"m 426 456 l 426 -227 l 387 -227 l 387 -42 l 388 45 l 386 45 q 364 21 324 4 q 283 -12 243 -12 q 150 -12 99 51 q 48 114 48 229 q 48 303 75 357 q 103 411 150 439 q 197 468 255 468 q 338 468 387 403 l 389 403 l 399 456 z m 387 358 q 360 395 328 414 q 297 432 256 432 q 178 432 133 377 q 89 323 89 226 q 89 117 132 71 q 174 24 249 24 q 327 24 387 84 z"},"d":{"x_min":0,"x_max":518,"ha":518,"o":"m 53 225 q 53 336 107 402 q 161 468 251 468 q 298 468 332 452 q 367 437 392 403 l 394 403 l 392 458 l 392 707 l 431 707 l 431 90 q 431 33 434 0 l 405 0 l 394 53 l 392 53 q 373 27 331 7 q 290 -12 250 -12 q 196 -12 152 13 q 107 38 80 91 q 53 145 53 225 z m 392 103 l 392 362 q 332 432 252 432 q 179 432 136 376 q 94 320 94 223 q 94 130 136 77 q 178 24 251 24 q 295 24 334 46 q 373 68 392 103 z"},"1":{"x_min":0,"x_max":406,"ha":406,"o":"m 73 0 l 73 37 l 231 37 l 231 414 l 53 355 l 53 394 l 233 456 l 271 456 l 271 37 l 390 37 l 390 0 z"},"5":{"x_min":0,"x_max":472,"ha":472,"o":"m 69 -178 l 69 -140 q 105 -153 134 -160 q 162 -166 196 -166 q 257 -166 297 -143 q 337 -119 356 -82 q 374 -45 374 -2 q 374 71 320 109 q 266 147 162 147 q 119 147 95 144 l 138 456 l 415 456 l 415 419 l 174 419 l 141 186 l 171 186 q 287 186 351 137 q 416 88 416 2 q 416 -92 357 -147 q 298 -202 198 -202 q 126 -202 69 -178 z"}}}
